Coordinates
version=1
nRows=7
nColumns=42
inDegrees=yes

Units are S.I. units (second, meters, Newtons, ...)
If the header above contains a line with 'inDegrees', this indicates whether rotational values are in degrees (yes) or radians (no).

endheader
time	pelvis_tilt	pelvis_list	pelvis_rotation	pelvis_tx	pelvis_ty	pelvis_tz	hip_flexion_r	hip_adduction_r	hip_rotation_r	knee_angle_r	knee_adduction_r	knee_angle_r_beta	ankle_angle_r	subtalar_angle_r	mtp_angle_r	hip_flexion_l	hip_adduction_l	hip_rotation_l	knee_angle_l	knee_adduction_l	knee_angle_l_beta	ankle_angle_l	subtalar_angle_l	mtp_angle_l	lumbar_extension	lumbar_bending	lumbar_rotation	arm_flex_r	arm_add_r	arm_rot_r	elbow_flex_r	pro_sup_r	wrist_flex_r	wrist_dev_r	arm_flex_l	arm_add_l	arm_rot_l	elbow_flex_l	pro_sup_l	wrist_flex_l	wrist_dev_l
      0.50000000	      2.69451517	     -9.87561696	     -2.69406038	     -1.67671181	      0.82622332	      0.35295147	      8.47265916	      7.71256599	    -29.41788262	     22.59229261	     -4.20545805	      0.39430989	     16.18615634	     25.91113014	     -9.55858679	      2.02961370	    -16.08076695	    -13.16230343	     45.78934100	     -8.61690143	      0.79917476	     16.86723879	     20.80430753	     -9.55858679	    -24.74693006	     11.01976145	      3.26305459	     -7.67878148	     -1.58490177	    -10.81433206	    106.75421015	     90.00000001	      0.00000000	      0.00000000	     -3.17596315	    -10.58488579	    -25.77704468	     47.20882559	     90.00000001	      0.00000000	      0.00000000
      0.51000000	      2.58834685	     -9.71999273	     -2.74516479	     -1.67463958	      0.82631416	      0.35418057	      8.38921176	      7.61791331	    -29.43949200	     22.55583912	     -4.13227660	      0.39367366	     16.48057604	     25.94412005	     -9.50262378	      3.13040783	    -16.04540627	    -12.15320661	     47.60848770	     -8.52766861	      0.83092486	     15.23966958	     20.66856101	     -9.50262378	    -24.92743164	     10.90920058	      3.25572821	     -7.93918842	     -1.70351376	    -11.05806449	    106.74235074	     90.00000001	      0.00000000	      0.00000000	     -3.04565172	    -10.50291638	    -25.80920203	     47.49253379	     90.00000001	      0.00000000	      0.00000000
      0.52000000	      2.41092177	     -9.53171279	     -2.79550408	     -1.67254143	      0.82623746	      0.35534408	      8.43972176	      7.52352433	    -29.38280046	     22.60516689	     -4.18642621	      0.39453459	     16.60756048	     26.01952090	     -9.39477733	      4.32761527	    -16.02554375	    -10.97506585	     49.51000038	     -8.13515028	      0.86411252	     14.08255501	     19.68403207	     -9.39477733	    -24.97877539	     10.75976154	      3.19707879	     -8.24942066	     -1.89189377	    -11.29188696	    106.53422000	     90.00000001	      0.00000000	      0.00000000	     -2.93320352	    -10.41489933	    -25.87188625	     47.71685165	     90.00000001	      0.00000000	      0.00000000
      0.53000000	      2.42166369	     -9.33247547	     -2.87569681	     -1.67041809	      0.82647059	      0.35641021	      8.20124028	      7.38176553	    -29.21889498	     22.53333711	     -4.08797150	      0.39328092	     16.87638918	     26.01455748	     -9.35194383	      5.27706191	    -15.96184976	    -10.36141398	     51.14121248	     -8.10521627	      0.89258254	     12.79060311	     19.55712301	     -9.35194383	    -25.26643695	     10.58010469	      3.24651672	     -8.51844153	     -2.02073263	    -11.64602919	    106.43381198	     90.00000001	      0.00000000	      0.00000000	     -2.77923061	    -10.30204022	    -25.86917508	     48.04494873	     90.00000001	      0.00000000	      0.00000000
      0.54000000	      2.21340034	     -9.18875834	     -2.90663141	     -1.66854181	      0.82634074	      0.35737823	      8.29780908	      7.32381267	    -29.16958677	     22.55830730	     -4.13583961	      0.39371674	     17.05506823	     26.05177580	     -9.27130464	      6.58533234	    -16.05548059	     -9.51272691	     52.87814249	     -7.74457723	      0.92289769	     11.69536407	     18.70565909	     -9.27130464	    -25.32404354	     10.50161844	      3.18364503	     -8.74867068	     -2.16762292	    -11.93817056	    106.23620707	     90.00000001	      0.00000000	      0.00000000	     -2.68521948	    -10.21125490	    -25.89202320	     48.32972141	     90.00000001	      0.00000000	      0.00000000
      0.55000000	      2.29624936	     -8.95977520	     -2.96719153	     -1.66645240	      0.82664101	      0.35816584	      7.97478615	      7.07346868	    -28.98995226	     22.51871262	     -3.93076812	      0.39302568	     17.22775880	     26.05334450	     -9.24434244	      7.46681913	    -16.00694881	     -9.37285430	     54.25922831	     -7.83012963	      0.94700218	     11.01749165	     18.47840746	     -9.24434244	    -25.68543241	     10.30016155	      3.18468890	     -8.93071934	     -2.30821748	    -12.23336454	    106.15357688	     90.00000001	      0.00000000	      0.00000000	     -2.52398945	    -10.10824834	    -25.86628733	     48.59763552	     90.00000001	      0.00000000	      0.00000000
      0.56000000	      2.38342751	     -8.63633098	     -3.20572514	     -1.66440853	      0.82708559	      0.35908862	      7.75713341	      6.78111351	    -28.73153199	     22.62290276	     -3.96564373	      0.39484414	     17.18865159	     25.85501786	     -9.22383766	      8.13625283	    -15.86160365	     -9.37872423	     55.19551168	     -7.77349360	      0.96334341	     10.73658761	     18.33261811	     -9.22383766	    -26.08647578	      9.92787591	      3.28461635	     -9.06188356	     -2.53107235	    -12.32452016	    105.87953851	     90.00000001	      0.00000000	      0.00000000	     -2.40176550	    -10.02777901	    -25.78126399	     48.77762091	     90.00000001	      0.00000000	      0.00000000
